<?xml version="1.0" standalone="no"?>
<!DOCTYPE svg PUBLIC "-//W3C//DTD SVG 20010904//EN"
 "http://www.w3.org/TR/2001/REC-SVG-20010904/DTD/svg10.dtd">
<svg version="1.0" xmlns="http://www.w3.org/2000/svg"
 width="500.000000pt" height="500.000000pt" viewBox="0 0 500.000000 500.000000"
 preserveAspectRatio="xMidYMid meet">
<metadata>
Created by potrace 1.11, written by Peter Selinger 2001-2013
</metadata>
<g transform="translate(0.000000,500.000000) scale(0.100000,-0.100000)"
fill="#000000" stroke="none">
<path d="M2529 3971 c-105 -34 -181 -103 -233 -211 l-21 -45 -3 -1299 c-2
-1178 -1 -1304 14 -1350 28 -88 81 -159 154 -206 95 -61 77 -60 1052 -60 618
0 903 3 939 11 134 29 240 132 274 265 14 54 15 209 13 1350 l-3 1289 -22 48
c-49 105 -135 180 -242 211 -48 14 -161 16 -960 15 -842 0 -910 -1 -962 -18z"/>
<path d="M219 3368 c22 -34 109 -176 126 -206 39 -69 141 -228 147 -230 4 -2
8 -8 8 -12 0 -5 25 -49 55 -97 30 -48 69 -114 87 -145 18 -32 36 -58 40 -58 5
0 8 -6 8 -13 0 -7 13 -31 30 -53 16 -21 30 -43 30 -47 0 -5 12 -27 28 -50 30
-47 27 -43 113 -185 34 -56 65 -105 70 -108 5 -3 9 -213 9 -475 l0 -469 145 0
144 0 0 481 1 481 43 67 c24 36 74 116 112 176 37 61 78 126 90 145 93 142
315 503 315 510 0 4 3 10 8 12 8 3 192 292 192 302 0 3 -69 6 -153 6 l-152 0
-20 -37 c-11 -20 -19 -41 -18 -45 2 -4 -1 -8 -6 -8 -8 0 -74 -103 -241 -377
-105 -172 -290 -469 -303 -487 -13 -18 -16 -15 -46 35 -39 66 -46 79 -91 149
-20 30 -71 115 -115 188 -44 73 -87 143 -95 156 -8 14 -51 83 -95 155 -44 73
-92 151 -107 174 -15 23 -33 53 -40 67 -13 25 -14 25 -177 28 l-163 3 21 -33z"/>
</g>
</svg>
